inDegrees=yes
name=ik_lifting_orientations
DataType=double
version=3
OpenSimVersion=4.5-2024-01-10-34fd6af
endheader
time	pelvis_tilt	pelvis_list	pelvis_rotation	pelvis_tx	pelvis_ty	pelvis_tz	hip_flexion_r	hip_adduction_r	hip_rotation_r	knee_angle_r	knee_angle_r_beta	ankle_angle_r	subtalar_angle_r	mtp_angle_r	hip_flexion_l	hip_adduction_l	hip_rotation_l	knee_angle_l	knee_angle_l_beta	ankle_angle_l	subtalar_angle_l	mtp_angle_l	lumbar_extension	lumbar_bending	lumbar_rotation	arm_flex_r	arm_add_r	arm_rot_r	elbow_flex_r	pro_sup_r	wrist_flex_r	wrist_dev_r	arm_flex_l	arm_add_l	arm_rot_l	elbow_flex_l	pro_sup_l	wrist_flex_l	wrist_dev_l
0.8100000000000001	5.07554425879015	4.036477911372507	-103.0179912079884	0	0.9399999998679526	0	44.99599285309776	-10.1043223170469	0	59.99805934413336	1.047163680362077	-5.025328999182845	0	0	44.99599285309776	-10.1043223170469	0	59.99805934413336	1.047163680362077	-5.025328999182845	0	0	-21.33974640882996	7.194618432722019	31.68716791320803	5.524467545888953	-20.63440931806392	-18.06313425354105	17.52311417498086	1.369286586346983	0	0	0	-12.03348138922015	0	88.65774724369066	1.369286586346983	0	0
0.82	5.180175376778868	4.124161300401252	-102.3441716133921	0	0.9399999998679526	0	44.99599551190382	-10.10408348911118	0	59.99806043450355	1.047163699392627	-5.025253635481998	0	0	44.99599551190382	-10.10408348911118	0	59.99806043450355	1.047163699392627	-5.025253635481998	0	0	-21.73379348920714	7.427773727880973	31.59868236558809	5.451597128741158	-20.94613109372246	-18.92359057456115	18.53569391362347	1.368652672932454	0	0	0	-12.03449440232171	0	88.65836855607803	1.368652672932454	0	0
0.83	5.265764249101273	4.279338165501048	-101.7012608168369	0	0.9399999998679526	0	44.99599919467285	-10.10375130777639	0	59.9980619388703	1.04716372564878	-5.025148752101106	0	0	44.99599919467285	-10.10375130777639	0	59.9980619388703	1.04716372564878	-5.025148752101106	0	0	-22.63414506633174	7.755573793420671	32.4559755480155	5.544499646347171	-21.70211324484949	-20.63734213041201	19.50898139886819	1.367775849822805	0	0	0	-12.03589392859934	0	88.65922794952179	1.367775849822805	0	0
0.84	5.374210290381925	4.375521549115402	-101.5840351499972	0	0.9399999998679526	0	44.99600063560465	-10.10362129871688	0	59.99806252824781	1.047163735935358	-5.025107682493202	0	0	44.99600063560465	-10.10362129871688	0	59.99806252824781	1.047163735935358	-5.025107682493202	0	0	-23.69586431351165	7.87704193197086	33.62074414574845	5.663830676694067	-22.42400683265557	-22.1778251399624	20.41215252314782	1.367432622524832	0	0	0	-12.03644205688668	0	88.65956435408714	1.367432622524832	0	0
0.85	5.544819676130598	4.477385799455138	-102.1925958925005	0	0.9399999998679526	0	44.99600235600625	-10.10346614111099	0	59.99806323172788	1.047163748213401	-5.025058682907892	0	0	44.99600235600625	-10.10346614111099	0	59.99806323172788	1.047163748213401	-5.025058682907892	0	0	-24.84095457585858	7.796206187115134	34.82537284194575	6.070142650189643	-23.2406355631435	-23.21103929343513	21.21888117726324	1.367022838442062	0	0	0	-12.03709644218504	0	88.65996599241009	1.367022838442062	0	0
0.86	5.851616228046495	4.534348513762732	-104.389912694403	0	0.9399999998679526	0	44.99600679080557	-10.10307030336837	0	59.99806505124619	1.047163779969986	-5.024934113767902	0	0	44.99600679080557	-10.10307030336837	0	59.99806505124619	1.047163779969986	-5.024934113767902	0	0	-26.13383226351058	6.718951593244109	37.78793541186245	6.323459110643854	-24.12700024944052	-24.44685013873859	21.89720318231108	1.365964686197831	0	0	0	-12.03878817431177	0	88.66100311058574	1.365964686197831	0	0
0.87	6.168977618649189	4.581725538650439	-106.7270714603684	0	0.9399999998679526	0	44.99600851397271	-10.1029183153549	0	59.99806576670895	1.047163792457167	-5.024886357927308	0	0	44.99600851397271	-10.1029183153549	0	59.99806576670895	1.047163792457167	-5.024886357927308	0	0	-27.22728051099418	5.290570363594316	41.18556208238484	6.985924643612706	-24.95212876217879	-25.87185379293709	21.80870567466185	1.365551674838394	0	0	0	-12.03945114469675	0	88.66140791213394	1.365551674838394	0	0
0.88	6.471770617315266	4.734725398786881	-107.5729414926735	0	0.9399999998679526	0	44.99600980041433	-10.10280486017571	0	59.99806630047211	1.047163801773092	-5.024850719201259	0	0	44.99600980041433	-10.10280486017571	0	59.99806630047211	1.047163801773092	-5.024850719201259	0	0	-27.96255496897877	4.522241976977599	43.12120362118532	7.66167063345945	-25.76834483179402	-27.2178034047474	21.63695737070937	1.365243392944473	0	0	0	-12.03994591069006	0	88.66171006601996	1.365243392944473	0	0
0.89	6.787800716153336	4.894435850916066	-108.3728951899422	0	0.9399999998679526	0	44.99601127113807	-10.1026740777919	0	59.99806690637372	1.04716381234807	-5.024809579902056	0	0	44.99601127113807	-10.1026740777919	0	59.99806690637372	1.04716381234807	-5.024809579902056	0	0	-28.77924992599639	4.125272752684721	44.06549561367493	8.348315286016295	-26.80954192437214	-27.56348173553053	21.95091383025401	1.36489189355681	0	0	0	-12.04050874653788	0	88.66205457828985	1.36489189355681	0	0
0.9	7.34175749819797	5.056210943914029	-110.9990866548517	0	0.9399999998679526	0	44.9960127987146	-10.10253827098596	0	59.99806753535834	1.047163823325922	-5.024766871976851	0	0	44.9960127987146	-10.10253827098596	0	59.99806753535834	1.047163823325922	-5.024766871976851	0	0	-29.49156971197316	2.62489121560497	46.24792177530916	9.070976027183624	-27.69962301206033	-27.55416239317767	22.23940741476407	1.364526850562564	0	0	0	-12.04109319056587	0	88.66241236494479	1.364526850562564	0	0
0.91	7.863262956131094	5.097292246407246	-113.9523944439462	0	0.9399999998679526	0	44.99601406312943	-10.10242845041244	0	59.9980680654321	1.047163832577455	-5.02473249535026	0	0	44.99601406312943	-10.10242845041244	0	59.9980680654321	1.047163832577455	-5.02473249535026	0	0	-30.08046363861434	0.6347498738189512	49.33474575968822	9.691461046285591	-28.58524680260881	-28.00692639103496	22.2041286579191	1.364222557374586	0	0	0	-12.04158327345843	0	88.66271060946252	1.364222557374586	0	0
0.92	8.172264091027937	5.238437074703275	-114.7287355939934	0	0.9399999998679526	0	44.99601552089617	-10.10229812004851	0	59.99806866209186	1.047163842991132	-5.02469148480676	0	0	44.99601552089617	-10.10229812004851	0	59.99806866209186	1.047163842991132	-5.02469148480676	0	0	-30.59431117895752	-0.08915622243742775	50.70937390363459	10.3897343647382	-29.6551332114661	-28.34786862431362	22.18871659386932	1.363874941448318	0	0	0	-12.04213876697733	0	88.6630513154378	1.363874941448318	0	0
0.93	8.389516674731722	5.423037542623752	-114.3049077089027	0	0.9399999998679526	0	44.99601734417334	-10.10213426100824	0	59.99806940498749	1.047163855957107	-5.024639878489323	0	0	44.99601734417334	-10.10213426100824	0	59.99806940498749	1.047163855957107	-5.024639878489323	0	0	-31.13903137484525	-0.1271244845421597	51.05497439345621	11.13315890760943	-30.65418568048954	-28.40633278447295	22.28191290874144	1.363440895897701	0	0	0	-12.04283138424689	0	88.66347673295242	1.363440895897701	0	0
0.9399999999999999	8.601380569975841	5.596782210245872	-113.9412916627533	0	0.9399999998679526	0	44.99601853373915	-10.10202788126462	0	59.99806989123626	1.047163864443749	-5.024606414988927	0	0	44.99601853373915	-10.10202788126462	0	59.99806989123626	1.047163864443749	-5.024606414988927	0	0	-31.99817422991766	-0.2512175665634456	51.66349689643905	11.8205695807405	-31.74511306816026	-29.05141261146261	22.49164611738631	1.363157334837885	0	0	0	-12.04328436386655	0	88.66375465734883	1.363157334837885	0	0
0.95	8.782213997978518	5.675481966829683	-114.2717078623702	0	0.9399999998679526	0	44.99602031698546	-10.10186801153687	0	59.99807061814793	1.047163877130751	-5.024556113445595	0	0	44.99602031698546	-10.10186801153687	0	59.99807061814793	1.047163877130751	-5.024556113445595	0	0	-32.75149514706812	-0.8129037286422346	52.90798892679462	12.16204506796246	-32.63929549123007	-29.85032699664276	23.02699898228437	1.362732670312671	0	0	0	-12.04396216651832	0	88.66417088032254	1.362732670312671	0	0
0.96	9.059062741410381	5.757566004113996	-115.1674942615081	0	0.9399999998679526	0	44.99602169710609	-10.10174571259147	0	59.99807118570005	1.047163887036404	-5.024517726029557	0	0	44.99602169710609	-10.10174571259147	0	59.99807118570005	1.047163887036404	-5.024517726029557	0	0	-32.5773922508271	-1.312169868707715	53.14957244496187	12.381338637601	-32.73676455652303	-29.12708081800468	23.79689035854212	1.362402864784916	0	0	0	-12.04449010994586	0	88.66449412996558	1.362402864784916	0	0
0.97	9.30518461712478	5.849509880827952	-115.8456733709949	0	0.9399999998679526	0	44.99602275923215	-10.10165131357858	0	59.99807162106717	1.047163894634994	-5.024488087236685	0	0	44.99602275923215	-10.10165131357858	0	59.99807162106717	1.047163894634994	-5.024488087236685	0	0	-32.70419842061307	-1.74065055496105	53.55757429140785	12.90196066725432	-33.09656557744515	-28.44242207449046	24.47526084261805	1.362149345215413	0	0	0	-12.04489551736937	0	88.66474261005415	1.362149345215413	0	0
0.98	9.476993367756219	5.905123719547564	-116.2743186042957	0	0.9399999998679526	0	44.99602400749818	-10.10153956203331	0	59.99807212959806	1.047163903510532	-5.024452954838504	0	0	44.99602400749818	-10.10153956203331	0	59.99807212959806	1.047163903510532	-5.024452954838504	0	0	-32.9693480828961	-2.167152182232102	54.1444795387719	13.44151260771772	-33.50686417719796	-27.94095429131902	24.89804787982533	1.361852086041778	0	0	0	-12.04536992949401	0	88.66503396026197	1.361852086041778	0	0
0.99	9.534396712454372	5.847940496471347	-116.9688055585844	0	0.9399999998679526	0	44.9960252695774	-10.10142658756284	0	59.99807264349081	1.047163912479653	-5.024417445871534	0	0	44.9960252695774	-10.10142658756284	0	59.99807264349081	1.047163912479653	-5.024417445871534	0	0	-33.82731339488492	-3.044279064284167	55.87985406117762	13.8790787389954	-34.3983304739819	-28.40609176554237	25.32265022572382	1.361551575267508	0	0	0	-12.0458494666006	0	88.66532849743342	1.361551575267508	0	0
1	9.451695780273461	5.827112678413283	-116.7117008991381	0	0.9399999998679526	0	44.9960267694881	-10.10129247638993	0	59.99807325449009	1.047163923143602	-5.024375309485456	0	0	44.9960267694881	-10.10129247638993	0	59.99807325449009	1.047163923143602	-5.024375309485456	0	0	-34.70827901167007	-3.285460774499982	56.97515459671482	14.28896781710073	-35.39156061069884	-28.83624410840727	25.53912696548182	1.361194350788456	0	0	0	-12.04641960954215	0	88.66567862094915	1.361194350788456	0	0
